# xmcd
#
# Track frame offsets:
#	150
#	19237
#	37611
#	54997
#	75400
#	93262
#	114366
#	132065
#	150241
#	167979
#	185167
#	204722
#	226682
#	229147
#	243713
#	265316
#
# Disc length: 3949 seconds
#
# Revision: 11
# Processed by: cddbd v1.5.2PL0 Copyright (c) Steve Scherf et al.
# Submitted via: EasyCDDAExtractor 15.3.0.1
#
DISCID=c10f6b10
DTITLE=Sin Bandera - De Viaje
DYEAR=2003
DGENRE=Latin
TTITLE0=De Viaje
TTITLE1=Amor Real
TTITLE2=Ven
TTITLE3=ABC
TTITLE4=Contigo
TTITLE5=Magia
TTITLE6=Bien
TTITLE7=Que Lloro
TTITLE8=Cancion Para Los Dias Lluviosos
TTITLE9=Mientes Tan Bien
TTITLE10=Puede Ser (Dueto Con Presuntos Implicados)
TTITLE11=Aqui
TTITLE12=Te Esperare (Intro)
TTITLE13=Te Esperare
TTITLE14=Suficiente
TTITLE15=Tal Vez
EXTD=
EXTT0=
EXTT1=
EXTT2=
EXTT3=
EXTT4=
EXTT5=
EXTT6=
EXTT7=
EXTT8=
EXTT9=
EXTT10=
EXTT11=
EXTT12=
EXTT13=
EXTT14=
EXTT15=
PLAYORDER=
